<svg id="Capa_1" data-name="Capa 1" xmlns="http://www.w3.org/2000/svg" viewBox="0 0 90.83 87.85"><defs><style>.cls-1{fill:#1f3b3b;}</style></defs><title>isotipo</title><path class="cls-1" d="M42.24,94.28,37.31,81.41,24.59,87.55l.9-13.72-14.19.6,6.59-12.2L4.68,57.17l11.15-8.56L5.9,38.79l13.77-3.45L14.74,22.46l14,2.28L29.65,11,41,18.3l.78-.22L48,6.43l7.19,11,1,.16L66.75,9.46l2,13.31.31.21,13.49-3.37L78.73,32.85l14,2.28L83.68,45.75l11.83,7.6L82.77,59.49,90.36,71.1l-14.2.6,2.06,13.59L65,80.25,61.2,93.48l-9.9-9.79h0Zm-4.7-15.15,1.18.49,4.17,10.89,7.47-8.75h.44l.84,0,.42,0,8.18,8.08,3.18-11,.61-.31.4-.2.39-.2,11,4.2L74,70.63l.68-.83,12.14-.51L81,60.35,79.63,61l.71-2.28.58-2.06.77,1.17,9.82-4.73L82.4,47.25l-.85,1-.37-2.13L80.87,44l1.14.71,7-8.19-11.8-1.91L77,34.2l-.21-.35-.24-.37,3.22-11.16L68.67,25.09l-.36-.26c-.33-.23-.66-.46-1-.67L67,23.92,65.31,13l-8.64,6.64-.43-.09c-.55-.11-1.13-.21-1.72-.29l-.44-.06-5.88-9-5.15,9.53-.42.1c-.54.13-1.05.28-1.54.42l-.43.13-9.28-6-.75,11.3L30.3,26l-.59.49-.34.3L17.78,24.93l3.8,9.93,1.33-.33-1,2-1,2-.55-1.43L9.74,39.84l7.65,7.57,1.5-1.16-.13,2.15c0,.25,0,.51,0,.77l-.1,2.2L17.23,50,8.64,56.6l10.19,3.89.94-1.74.73,2.09c.09.25.18.5.28.75l.77,2-1.82-.69-5.08,9.4,11-.46.11-1.63,1.77,1.88L29,73.68l-1.53.07-.7,10.58Z" transform="translate(-4.68 -6.43)"/><path class="cls-1" d="M50.11,81.37a31,31,0,1,1,31-31,31.07,31.07,0,0,1-31,31m0-60.1A29.08,29.08,0,1,0,79.19,50.34,29.11,29.11,0,0,0,50.11,21.27" transform="translate(-4.68 -6.43)"/><path class="cls-1" d="M56.79,44.1a.86.86,0,0,1-.84-.69c-.68-3.36-2.05-5.17-2.61-5.47-1.17.81-4.76,2.44-7.69,1.46a5.58,5.58,0,0,1-3.6-4.23,2,2,0,0,1,0-.9,10,10,0,0,1-5.55,1.27.86.86,0,1,1,0-1.71h.1a7.57,7.57,0,0,0,5.94-2.18l.43-.48.6.27c.62.3.55.74.33,2.06-.06.41-.17,1.07-.19,1.31a3.94,3.94,0,0,0,2.48,3c2.4.8,5.59-.8,6.24-1.3a1.41,1.41,0,0,1,1.4-.18c1.53.56,3.09,3.35,3.79,6.77a.85.85,0,0,1-.67,1Z" transform="translate(-4.68 -6.43)"/><path class="cls-1" d="M43,69.38a.86.86,0,0,1-.86-.85c-.08-4.64,6-9.11,9.27-10a6.73,6.73,0,0,0,.9-1.93c.48-1.35.91-2.52,1.9-2.74a1.58,1.58,0,0,1,1.5.54c1.93,1.93,3,2.22,6.35,2.33.63,0,1.12,0,1.52.08l.53,0c0-.12,0-.24,0-.36,0-.33-.06-.73-.09-1.22-.07-1.55,0-2.62,0-3.41,0-.34,0-.69,0-.91H63c-.6,0-1.43,0-2.52,0-3.27-.15-4.37-1.2-4.44-7.11a.86.86,0,0,1,.85-.87h0a.86.86,0,0,1,.85.85c.07,5.29.76,5.32,2.81,5.42,1,0,1.8,0,2.42,0,1.14,0,1.78,0,2.26.47s.45,1.15.41,2.23a31.78,31.78,0,0,0,0,3.25c0,.47,0,.85.08,1.15.08.85.13,1.4-.31,1.85s-1,.41-2,.34c-.38,0-.86-.06-1.45-.08-3.66-.12-5.19-.52-7.46-2.77a10.73,10.73,0,0,0-.63,1.51c-.5,1.4-1,2.72-2.07,3-2.77.73-8.06,4.75-8,8.3a.86.86,0,0,1-.84.88Z" transform="translate(-4.68 -6.43)"/><path class="cls-1" d="M43,69.22a.85.85,0,0,1-.86-.86,45.89,45.89,0,0,0-.81-6.22c-.16-.91-.31-1.76-.4-2.44-.06-.39-.16-.48-.16-.48a4.65,4.65,0,0,0-1.68.5,11.24,11.24,0,0,1-2,.7,2.13,2.13,0,0,1-2.27-.58c-1-1.23-.1-3.45,1.07-6,.18-.4.4-.89.45-1.06.24-4.17-.42-12.2-.82-17l-.1-1.12a.86.86,0,0,1,1.71-.14l.09,1.12c.41,4.87,1.09,13,.83,17.3a5.67,5.67,0,0,1-.6,1.62c-1.11,2.43-1.54,3.86-1.29,4.23a.67.67,0,0,0,.19,0,1.85,1.85,0,0,0,.4,0,9.9,9.9,0,0,0,1.73-.6c1.17-.48,2.27-.94,3.19-.41a2.19,2.19,0,0,1,1,1.73c.1.65.24,1.49.4,2.38a46.09,46.09,0,0,1,.83,6.52.85.85,0,0,1-.85.86" transform="translate(-4.68 -6.43)"/></svg>